<?xml version="1.0" standalone="no"?>
<!DOCTYPE svg PUBLIC "-//W3C//DTD SVG 20010904//EN"
 "http://www.w3.org/TR/2001/REC-SVG-20010904/DTD/svg10.dtd">
<svg version="1.0" xmlns="http://www.w3.org/2000/svg"
 width="650.000000pt" height="650.000000pt" viewBox="0 0 650.000000 650.000000"
 preserveAspectRatio="xMidYMid meet">
<metadata>
Created by potrace 1.15, written by Peter Selinger 2001-2017
</metadata>
<g transform="translate(0.000000,650.000000) scale(0.100000,-0.100000)"
fill="#000000" stroke="none">
<path d="M2445 5231 c-104 -49 -191 -169 -232 -322 -23 -87 -23 -280 0 -369
56 -210 196 -350 351 -350 158 0 296 137 353 350 24 88 24 281 0 369 -58 214
-195 351 -352 351 -45 0 -75 -7 -120 -29z"/>
<path d="M3950 5231 c-125 -38 -234 -180 -276 -356 -21 -92 -15 -306 10 -380
39 -109 78 -175 142 -235 92 -86 179 -108 292 -75 64 19 157 103 201 180 103
182 109 465 15 652 -72 142 -181 224 -299 222 -33 0 -71 -4 -85 -8z"/>
<path d="M510 3924 c-162 -43 -286 -149 -362 -310 -37 -78 -88 -332 -95 -475
-12 -221 78 -552 218 -804 158 -286 406 -540 634 -651 111 -54 220 -80 395
-95 249 -21 515 0 881 71 502 97 738 198 1011 433 l57 49 68 -59 c149 -131
251 -192 456 -277 154 -64 498 -147 787 -190 325 -49 710 -42 896 15 170 53
295 135 480 316 169 166 310 387 398 626 87 234 125 457 106 623 -34 305 -92
468 -209 585 -126 126 -309 186 -445 145 -113 -34 -186 -123 -186 -226 0 -83
11 -92 57 -49 59 56 84 69 133 69 51 0 100 -25 125 -64 35 -54 6 -202 -68
-341 -89 -166 -290 -297 -564 -366 -120 -30 -174 -30 -288 2 -113 31 -240 124
-300 219 -224 355 -379 510 -580 580 -235 83 -468 79 -642 -8 -90 -46 -166
-112 -198 -175 l-29 -55 -22 47 c-27 58 -118 142 -199 182 -106 51 -212 72
-344 67 -249 -10 -467 -106 -619 -272 -70 -77 -149 -186 -221 -303 -114 -187
-243 -274 -446 -302 -62 -9 -83 -7 -167 14 -193 47 -383 141 -479 235 -63 63
-118 154 -155 261 -51 145 -41 220 35 258 74 38 135 25 200 -43 19 -20 40 -36
47 -36 17 0 27 83 15 128 -40 149 -202 224 -381 176z"/>
</g>
</svg>
