<?xml version="1.0" standalone="no"?>
<!DOCTYPE svg PUBLIC "-//W3C//DTD SVG 20010904//EN"
 "http://www.w3.org/TR/2001/REC-SVG-20010904/DTD/svg10.dtd">
<svg version="1.0" xmlns="http://www.w3.org/2000/svg"
 width="1080.000000pt" height="720.000000pt" viewBox="0 0 1080.000000 720.000000"
 preserveAspectRatio="xMidYMid meet">
<metadata>
Created by potrace 1.15, written by Peter Selinger 2001-2017
</metadata>
<g transform="translate(0.000000,720.000000) scale(0.100000,-0.100000)"
fill="#000000" stroke="none">
<path d="M116 7192 c5 -5 81 -58 169 -117 88 -60 207 -141 265 -180 120 -82
799 -543 1088 -739 106 -72 313 -213 460 -313 147 -100 350 -238 452 -307 102
-69 268 -182 370 -252 102 -69 236 -160 298 -202 120 -81 121 -83 101 -155
l-10 -38 -27 17 c-14 9 -339 210 -721 447 -708 437 -859 530 -966 597 -33 20
-118 73 -190 117 -71 44 -224 139 -340 210 -785 486 -1056 653 -1060 653 -3 0
-5 -134 -5 -299 l0 -299 243 -122 c133 -67 382 -193 552 -280 384 -195 963
-488 1630 -825 281 -142 596 -301 700 -355 105 -53 385 -196 624 -316 l433
-219 -51 -6 c-57 -8 10 -36 -1076 463 -132 60 -287 132 -345 158 -58 27 -485
223 -950 436 -465 212 -928 425 -1030 471 -102 47 -232 107 -290 133 -58 26
-170 78 -250 115 -80 37 -155 71 -168 76 l-22 9 0 -244 0 -244 113 -40 c61
-22 166 -61 232 -85 66 -24 304 -112 530 -195 226 -83 601 -221 835 -307 234
-86 646 -238 915 -337 461 -169 629 -231 1040 -383 94 -34 180 -66 193 -69 30
-10 28 -21 -9 -36 -35 -15 -30 -16 -456 124 -142 46 -631 207 -1088 356 -456
149 -868 284 -915 300 -71 24 -833 274 -1255 411 -66 21 -123 39 -128 39 -4 0
-7 -93 -7 -207 l0 -208 1841 -459 c1012 -253 1842 -462 1844 -466 2 -4 -6 -16
-18 -28 l-22 -20 -645 139 c-355 76 -688 148 -740 159 -52 11 -169 36 -260 55
-91 20 -226 49 -300 64 -74 16 -483 104 -908 195 -424 91 -777 166 -782 166
-7 0 -9 -65 -8 -187 l3 -188 160 -23 c88 -12 502 -72 920 -133 418 -60 918
-132 1110 -160 193 -28 576 -83 852 -123 277 -40 505 -75 508 -78 3 -3 0 -17
-6 -31 -9 -21 -17 -25 -38 -21 -23 4 -843 95 -1786 199 -170 19 -329 37 -353
40 -24 2 -327 36 -675 75 -348 38 -647 72 -665 75 l-32 6 0 -181 c0 -137 3
-180 13 -180 6 0 154 -7 327 -15 173 -8 419 -19 545 -25 758 -34 930 -42 1215
-55 173 -8 524 -24 780 -35 592 -26 610 -27 610 -48 -1 -44 18 -43 -666 -32
-357 5 -1020 14 -1474 20 -454 5 -943 12 -1087 16 l-263 6 0 -176 0 -176 58 0
c31 0 179 7 327 15 149 8 362 19 475 25 318 16 945 48 1260 65 157 8 375 20
485 25 110 6 324 17 475 25 151 8 299 15 328 15 51 0 52 0 52 -30 0 -19 -5
-30 -14 -30 -8 0 -200 -16 -427 -35 -1113 -94 -1894 -159 -2389 -200 -300 -25
-564 -47 -587 -50 l-43 -6 0 -180 c0 -98 3 -179 7 -179 5 0 881 132 1398 211
72 11 234 35 360 54 221 33 663 100 1357 205 180 28 336 50 347 50 14 0 23 -9
27 -25 4 -14 5 -28 3 -30 -4 -3 -249 -49 -1504 -280 -317 -59 -667 -123 -1130
-209 -165 -31 -427 -79 -582 -108 l-283 -52 0 -193 c0 -135 3 -193 11 -193 6
0 109 25 228 56 119 30 362 93 541 139 179 46 404 104 501 129 97 25 183 46
192 46 13 0 14 -6 6 -33 -5 -20 -5 -46 1 -67 5 -18 8 -35 6 -37 -1 -2 -317
-96 -702 -209 -384 -114 -717 -212 -739 -218 l-40 -12 -3 -222 -2 -222 27 11
c16 6 273 103 573 216 300 113 639 241 755 284 115 43 210 79 212 79 2 0 3
-20 3 -44 0 -34 -6 -52 -25 -72 -14 -15 -28 -37 -31 -49 -3 -13 -15 -27 -27
-32 -12 -6 -159 -68 -327 -138 -168 -70 -433 -181 -590 -247 -157 -66 -321
-135 -365 -153 -44 -19 -107 -45 -140 -58 l-60 -25 -3 -261 c-1 -144 1 -261 5
-261 7 0 281 138 298 150 6 4 127 67 270 140 143 73 310 158 370 190 61 32
246 128 413 214 l303 157 70 -45 c39 -25 76 -47 82 -49 7 -2 10 -7 7 -10 -6
-6 -1239 -710 -1767 -1009 l-53 -29 0 -260 0 -259 109 0 110 0 348 242 c436
302 416 288 733 508 146 101 294 204 330 229 36 24 76 52 90 62 14 9 88 61
165 115 221 155 428 296 441 301 6 2 14 -8 18 -24 4 -15 21 -48 38 -71 l30
-44 -38 -31 c-21 -18 -136 -106 -255 -197 -763 -580 -1419 -1083 -1419 -1086
0 -2 192 -4 428 -3 l427 0 609 570 c595 556 610 570 640 562 17 -4 68 -7 114
-7 53 1 82 -2 82 -9 0 -6 -73 -86 -163 -177 -140 -142 -570 -585 -831 -857
l-80 -83 355 1 354 0 115 152 c103 136 284 371 523 678 l82 107 60 4 c47 4 69
1 100 -15 22 -11 42 -21 44 -23 2 -2 -18 -36 -45 -76 -67 -98 -218 -319 -269
-393 -23 -33 -86 -125 -140 -205 -55 -80 -112 -163 -128 -185 l-28 -40 302 -3
c167 -1 306 1 310 5 7 8 36 65 323 626 76 147 139 267 142 267 2 0 18 -15 34
-33 16 -19 50 -45 75 -58 30 -16 43 -29 40 -39 -3 -8 -78 -184 -168 -390
l-163 -375 274 -3 c151 -1 277 0 280 2 2 3 15 44 28 93 14 48 52 185 85 303
33 118 67 238 74 266 l15 50 62 12 c35 7 72 14 83 17 11 3 30 -3 43 -13 l23
-17 -66 -320 c-36 -176 -69 -337 -74 -358 l-9 -37 267 0 268 0 12 228 c7 125
16 285 21 357 l10 129 38 36 c47 42 68 82 85 156 l13 56 30 -34 31 -35 6 -264
c4 -145 7 -346 7 -446 l0 -183 266 0 266 0 -6 42 c-4 24 -29 176 -55 338 -43
268 -46 296 -32 308 9 7 26 22 39 33 21 18 24 18 47 3 13 -9 44 -22 67 -28
l42 -13 63 -269 c34 -148 70 -302 79 -341 l16 -73 274 0 c151 0 274 2 274 6 0
5 -18 53 -136 354 -79 204 -134 348 -134 356 0 2 15 10 34 18 19 8 53 31 75
52 41 37 42 37 61 18 10 -10 74 -138 141 -284 67 -146 148 -321 180 -390 l57
-125 302 -3 301 -2 -35 53 c-18 30 -94 149 -167 266 -74 116 -169 267 -212
334 -43 67 -82 130 -87 139 -9 14 -1 19 48 34 31 9 79 17 106 18 l50 0 300
-422 301 -421 338 -1 c286 0 337 2 330 14 -8 14 -115 133 -224 251 -30 33
-140 154 -244 270 -104 116 -229 254 -279 308 -49 53 -87 100 -84 103 3 3 49
17 103 31 l97 26 502 -502 501 -501 410 0 410 0 -25 24 c-14 13 -167 138 -340
278 -536 433 -569 459 -790 639 -119 96 -218 178 -220 184 -4 9 108 62 166 79
16 5 70 -30 235 -152 299 -222 738 -545 1111 -819 l317 -233 256 0 255 0 0
168 -1 167 -137 81 c-75 45 -276 166 -447 269 -170 103 -362 219 -425 257 -63
38 -241 146 -395 239 -154 93 -295 179 -314 190 l-33 20 63 59 c35 32 69 59
76 60 7 0 79 -37 160 -81 81 -45 171 -94 198 -109 28 -15 136 -75 240 -132
177 -98 729 -400 928 -509 l87 -48 -2 275 -3 275 -525 235 c-289 129 -549 246
-579 260 l-53 24 24 32 c14 18 35 52 47 75 l21 42 62 -24 c35 -13 254 -101
488 -195 234 -95 446 -181 473 -191 l47 -19 0 228 0 228 -162 51 c-609 192
-904 287 -911 293 -13 11 15 150 29 150 7 0 84 -20 171 -44 278 -77 846 -238
860 -243 11 -4 13 32 13 196 0 200 0 201 -22 206 -13 2 -167 34 -343 70 -176
37 -439 91 -585 121 -146 31 -416 86 -600 124 -331 68 -1280 264 -1745 361
-132 28 -346 72 -475 98 -231 47 -235 48 -238 73 -3 21 0 26 15 22 10 -2 187
-33 393 -69 206 -35 494 -85 640 -110 283 -49 1518 -262 2265 -390 116 -20
311 -54 435 -76 124 -21 233 -39 243 -39 16 0 17 15 17 180 l0 179 -32 6 c-18
2 -121 14 -228 25 -172 17 -703 72 -970 101 -134 14 -548 57 -715 74 -77 8
-225 23 -330 34 -944 99 -1727 181 -1731 181 -2 0 -4 9 -4 21 0 17 4 19 23 13
12 -4 58 -7 102 -5 44 1 330 -16 635 -38 305 -23 996 -72 1535 -111 539 -39
1133 -82 1319 -95 186 -14 352 -25 368 -25 l28 0 0 173 0 174 -712 6 c-392 4
-1227 10 -1855 14 -629 3 -1143 8 -1143 9 0 2 5 15 12 29 10 22 17 25 67 25
50 0 871 20 1401 35 113 3 385 10 605 15 220 6 661 17 979 25 319 8 595 15
613 15 l33 0 0 175 0 175 -37 0 c-21 0 -85 -4 -143 -10 -178 -17 -859 -79
-975 -89 -387 -34 -2438 -221 -2472 -225 -42 -6 -43 -5 -43 24 0 17 3 30 8 30
6 0 524 64 1907 235 248 30 594 73 770 95 176 22 467 58 646 80 179 22 329 40
332 40 4 0 7 83 7 185 0 141 -3 185 -12 185 -7 0 -103 -18 -213 -40 -110 -21
-297 -58 -415 -80 -118 -23 -352 -68 -520 -100 -301 -59 -740 -143 -935 -180
-97 -18 -586 -112 -1175 -226 -157 -30 -316 -61 -353 -68 l-68 -14 -10 26 c-5
13 -8 26 -6 28 3 3 1248 288 1747 400 85 19 202 46 260 59 58 14 236 54 395
90 384 87 524 119 942 215 193 44 354 80 357 80 3 0 6 92 6 204 l0 205 -62
-19 c-71 -21 -212 -63 -843 -255 -242 -73 -462 -140 -490 -148 -75 -22 -1001
-303 -1145 -347 -69 -21 -215 -65 -325 -99 -110 -33 -356 -108 -547 -166 -190
-58 -351 -105 -356 -105 -5 0 -17 11 -26 24 l-15 24 162 55 c89 30 414 141
722 247 308 106 657 225 775 265 510 174 1129 386 1635 560 187 64 378 129
425 145 l85 28 3 236 2 236 -47 -20 c-27 -10 -471 -201 -988 -423 -3034 -1303
-2892 -1244 -2978 -1250 -44 -3 -77 -4 -75 -2 3 3 543 261 1158 552 300 143
411 195 1215 578 782 372 1097 522 1410 670 160 75 293 140 298 144 4 4 6 134
5 290 l-3 282 -135 -79 c-74 -43 -236 -137 -360 -209 -252 -147 -1097 -638
-1380 -803 -102 -59 -349 -204 -550 -320 -201 -117 -489 -285 -640 -373 -151
-88 -453 -263 -670 -390 -217 -126 -441 -256 -497 -289 -89 -52 -107 -59 -146
-56 l-45 3 206 131 c114 73 592 378 1062 679 470 301 1161 744 1535 983 1003
642 1065 682 1355 867 l265 171 3 77 3 77 -386 0 -387 0 -71 -58 c-40 -32
-152 -121 -250 -196 -98 -76 -186 -144 -195 -151 -35 -28 -1009 -788 -1051
-820 -14 -11 -129 -100 -256 -199 -126 -99 -259 -202 -295 -230 -36 -27 -117
-90 -180 -140 -547 -428 -1514 -1178 -1524 -1182 -7 -3 -22 -1 -34 3 -19 7 1
28 171 173 106 91 622 534 1147 985 525 451 1164 999 1420 1219 256 220 515
443 577 495 l112 96 -393 3 -394 2 -59 -62 c-33 -35 -253 -268 -488 -518 -236
-250 -464 -491 -506 -535 -42 -44 -235 -249 -429 -455 -195 -206 -388 -410
-429 -454 -42 -43 -81 -84 -86 -90 -12 -13 -282 -299 -548 -581 -99 -104 -225
-235 -281 -290 -55 -55 -115 -117 -131 -139 -25 -31 -32 -36 -41 -25 -9 11 57
94 311 394 178 209 336 387 352 395 167 87 251 179 288 314 19 69 -15 25 431
552 117 137 254 299 305 359 51 61 244 288 428 505 185 217 345 406 357 420
72 84 151 177 163 193 13 16 -4 17 -318 17 l-331 0 -500 -752 -500 -753 0 50
c0 45 4 54 35 83 22 21 40 52 50 84 19 64 19 67 0 143 l-16 62 136 234 c75
128 147 252 159 274 13 22 78 135 146 250 68 116 138 236 156 268 l33 57 -296
-2 -295 -3 -68 -165 c-38 -91 -124 -298 -192 -460 l-124 -295 -64 -6 c-36 -4
-84 -10 -107 -14 l-43 -8 21 59 c106 301 299 873 299 886 0 5 -121 8 -270 8
l-270 0 -4 -22 c-3 -13 -24 -122 -46 -243 -81 -439 -111 -590 -119 -610 -8
-18 -16 -20 -100 -17 -83 3 -91 5 -91 23 0 11 23 210 50 441 27 231 50 422 50
424 0 2 -155 4 -345 4 l-345 0 5 -37 c10 -72 67 -905 62 -909 -3 -3 -32 2 -65
10 -33 9 -71 16 -85 16 -13 0 -29 6 -34 13 -5 6 -19 80 -31 162 -12 83 -31
211 -42 285 -11 74 -30 208 -42 298 l-23 162 -267 0 c-289 0 -276 3 -259 -55
5 -17 55 -185 111 -375 56 -190 115 -390 132 -445 16 -55 32 -107 34 -115 3
-10 -22 -34 -72 -69 -41 -29 -77 -51 -79 -49 -4 4 -370 991 -393 1061 l-16 47
-288 0 c-158 0 -288 -2 -288 -5 0 -3 16 -36 36 -73 20 -37 51 -94 69 -127 18
-33 55 -103 82 -155 28 -52 89 -167 135 -255 194 -365 219 -415 214 -424 -4
-5 -21 -13 -39 -16 -17 -4 -49 -16 -70 -27 -21 -10 -42 -18 -47 -16 -9 3 -155
239 -505 817 l-170 280 -323 1 -324 0 19 -24 c21 -29 284 -361 439 -558 60
-75 170 -214 244 -309 74 -94 154 -195 178 -223 l43 -51 -92 -29 c-87 -28 -93
-28 -105 -12 -7 10 -28 35 -46 55 -19 20 -236 265 -483 545 -248 281 -470 532
-495 558 l-45 49 -374 -3 -374 -3 164 -150 c90 -82 250 -229 354 -325 105 -96
235 -215 290 -265 55 -49 131 -119 170 -155 39 -36 195 -179 348 -318 152
-139 277 -260 277 -267 0 -8 5 -36 11 -64 14 -66 62 -115 133 -136 45 -13 66
-29 139 -104 84 -86 87 -90 87 -135 0 -37 -3 -45 -14 -39 -13 7 -182 147 -815
672 -135 112 -322 267 -416 344 -93 78 -246 204 -340 282 -93 77 -246 204
-340 282 -93 77 -235 195 -315 262 l-145 120 -474 1 c-261 0 -471 -4 -465 -8z
m5810 -1052 c97 -12 151 -35 170 -72 24 -45 11 -92 -31 -118 -23 -14 -38 -33
-45 -58 -16 -59 -13 -489 4 -546 36 -120 151 -187 266 -156 136 37 158 110
145 489 l-7 216 -54 50 c-43 40 -54 57 -54 82 0 40 36 70 95 79 61 9 206 -13
257 -40 76 -38 90 -109 28 -141 -58 -30 -59 -36 -61 -330 -1 -288 -8 -360 -40
-436 -23 -54 -96 -127 -155 -157 -114 -57 -301 -73 -448 -38 -179 43 -303 158
-336 314 -6 26 -12 178 -13 338 l-2 292 -47 50 c-49 52 -59 83 -38 123 30 56
191 82 366 59z m-801 -35 c156 -44 298 -213 350 -415 22 -84 22 -227 0 -310
-107 -412 -619 -585 -912 -307 -101 96 -152 215 -160 377 -10 202 51 365 186
500 151 151 347 208 536 155z m-782 -97 c19 -23 22 -69 6 -99 -5 -11 -34 -31
-63 -45 -29 -14 -67 -39 -83 -57 -51 -54 -172 -228 -206 -297 -32 -64 -32 -65
-32 -220 0 -85 3 -167 8 -182 4 -15 25 -39 49 -55 54 -36 68 -75 41 -112 -48
-63 -171 -99 -369 -108 -153 -7 -200 3 -211 45 -11 42 -6 54 48 102 50 44 50
46 60 125 6 44 9 121 7 172 -4 88 -6 94 -43 148 -58 85 -199 213 -249 226 -61
16 -71 23 -74 53 -5 44 58 97 162 134 192 70 356 98 401 68 31 -21 33 -61 5
-109 -16 -26 -18 -40 -11 -59 14 -37 61 -88 80 -88 22 0 81 81 91 126 6 26 4
39 -11 58 -26 33 -24 82 4 110 32 32 125 65 227 80 99 15 138 11 163 -16z
m1927 -262 c0 -74 -4 -91 -47 -195 l-48 -113 -3 192 c-2 186 -2 194 19 216
l21 23 29 -21 c28 -21 29 -25 29 -102z m-1839 -918 c166 -211 354 -448 417
-527 112 -140 129 -170 106 -178 -10 -3 -631 687 -699 775 -13 17 -20 43 -21
72 -1 77 -22 128 -70 175 -38 37 -55 65 -40 65 3 0 141 -172 307 -382z m1229
127 c0 -5 -30 -173 -67 -372 -67 -356 -68 -363 -92 -363 -22 0 -23 3 -17 43 3
23 24 200 46 392 22 193 43 361 46 373 5 23 7 22 44 -20 22 -23 40 -47 40 -53z
m-330 -337 c11 -144 22 -289 25 -320 6 -57 6 -58 -20 -58 -14 0 -25 4 -25 9 0
5 -18 131 -40 280 -22 149 -40 282 -40 296 0 18 9 29 38 44 20 10 38 18 40 16
2 -2 12 -122 22 -267z m584 190 c-3 -5 -64 -147 -134 -316 -120 -285 -146
-333 -164 -304 -3 6 27 106 68 223 40 118 90 264 111 325 l37 112 44 -15 c24
-8 41 -19 38 -25z m-1179 -7 l40 -11 153 -293 c85 -160 154 -296 155 -302 1
-5 -7 -11 -18 -12 -16 -2 -51 47 -185 269 -238 392 -226 371 -204 365 10 -3
37 -11 59 -16z m325 -23 c0 -6 34 -129 76 -272 42 -144 77 -265 78 -271 0 -5
-8 -11 -19 -13 -20 -3 -61 98 -222 545 -4 11 19 19 65 22 12 0 22 -4 22 -11z
m1114 -25 c-9 -16 -110 -167 -223 -336 -171 -258 -207 -305 -218 -294 -11 11
17 65 173 335 l187 322 50 0 49 0 -18 -27z m-1820 -198 c121 -110 287 -262
370 -337 142 -130 165 -157 141 -165 -5 -1 -111 81 -235 183 -124 103 -301
250 -395 327 -93 77 -176 146 -184 153 -11 10 -7 16 25 32 22 11 44 17 49 14
6 -3 109 -96 229 -207z m-191 -115 c339 -230 345 -235 310 -241 -37 -7 -37 -7
-683 395 l-115 71 50 6 c28 4 59 6 71 5 11 0 176 -107 367 -236z m1299 -371
c60 -13 133 -47 195 -92 88 -63 184 -219 217 -352 78 -314 -89 -629 -379 -714
-261 -76 -518 37 -633 279 -52 111 -66 174 -66 295 1 182 53 316 168 431 135
136 316 191 498 153z m713 -3 c78 -17 461 -24 581 -11 70 7 71 7 107 -25 58
-51 100 -149 105 -246 4 -78 3 -82 -25 -114 -23 -26 -37 -33 -69 -34 -57 -1
-85 22 -127 102 -20 38 -43 75 -51 81 -20 16 -53 5 -61 -20 -11 -33 -7 -623 4
-652 6 -15 27 -35 49 -46 21 -11 44 -26 51 -35 16 -19 17 -66 2 -95 -27 -49
-165 -84 -323 -80 -167 3 -265 34 -287 87 -21 50 -7 79 47 105 26 12 52 33 59
48 18 36 29 201 32 439 2 225 -3 260 -43 260 -19 0 -35 -16 -73 -72 -50 -76
-100 -118 -139 -118 -13 0 -38 13 -55 28 -25 23 -33 38 -36 79 -9 93 47 233
119 299 44 39 40 39 133 20z m-1852 -35 c61 -18 72 -18 109 -5 58 20 73 18
112 -17 47 -41 78 -124 79 -209 0 -113 -45 -167 -130 -157 -50 5 -45 2 -141
116 -88 105 -202 122 -285 43 -97 -91 -110 -309 -31 -489 43 -97 133 -172 207
-173 42 0 77 40 77 88 0 47 -14 62 -56 62 -82 0 -117 97 -55 152 53 48 176 69
329 57 118 -10 177 -35 197 -84 13 -31 13 -39 1 -69 -11 -27 -23 -37 -54 -45
-36 -10 -41 -15 -51 -57 -52 -205 -222 -334 -441 -334 -248 0 -465 161 -541
400 -32 100 -30 252 4 348 36 103 82 174 154 243 139 129 340 180 516 130z
m2982 -969 c237 -67 664 -187 950 -267 286 -80 609 -171 718 -201 262 -73 250
-67 235 -99 -8 -18 -16 -24 -27 -19 -9 4 -56 18 -106 31 -83 22 -97 23 -178
13 l-87 -11 -203 65 c-111 35 -366 116 -567 181 -201 64 -457 146 -570 182
-113 36 -288 91 -388 123 -177 57 -196 66 -223 114 -9 15 -8 18 3 14 8 -3 207
-60 443 -126z m-3730 29 l15 -30 -83 -25 c-416 -126 -1451 -426 -1470 -426
-29 0 -186 45 -198 57 -5 5 176 56 409 116 558 143 932 240 1132 292 91 24
168 44 172 44 4 1 14 -12 23 -28z m1225 -113 c0 -5 -156 -170 -346 -366 l-346
-357 -51 -6 c-29 -4 -64 -10 -79 -14 -16 -4 -28 -5 -28 -2 0 3 159 153 353
334 193 180 379 353 412 385 44 42 63 54 72 46 7 -6 13 -15 13 -20z m3364
-495 l188 -76 -53 -17 c-30 -9 -65 -23 -79 -32 -24 -15 -34 -11 -275 98 -137
62 -275 124 -305 138 -30 13 -104 47 -165 74 -60 27 -213 96 -340 152 -126 56
-232 103 -233 105 -2 2 -1 17 3 33 l6 29 532 -214 c293 -118 617 -249 721
-290z m-4424 418 c0 -3 -118 -55 -263 -115 -144 -60 -385 -161 -535 -223
l-272 -114 -54 11 c-44 9 -65 8 -117 -5 -53 -14 -64 -14 -76 -2 -16 16 -64 -3
772 310 l489 184 28 -20 c16 -12 28 -23 28 -26z m2386 -313 c142 -199 265
-370 272 -380 13 -18 11 -19 -49 -16 l-63 3 -88 140 c-354 561 -369 587 -357
601 6 8 15 14 18 14 4 0 124 -163 267 -362z m-1233 298 c17 -13 -1 -42 -253
-410 -149 -218 -273 -396 -274 -396 -2 0 -17 18 -35 40 l-32 40 113 148 c274
359 453 591 458 591 3 0 13 -6 23 -13z m1019 -385 c87 -189 157 -345 156 -347
-14 -14 -56 -19 -79 -11 -24 10 -37 36 -118 246 -50 130 -108 281 -130 336
-36 91 -38 100 -23 112 10 7 21 11 26 10 5 -2 80 -157 168 -346z m1363 67
c220 -121 420 -232 445 -246 l45 -27 -85 -11 c-101 -14 -48 -38 -450 206 -157
95 -327 198 -377 229 -51 31 -93 58 -93 61 0 3 12 12 28 21 33 19 -20 45 487
-233z m-3342 228 c29 -10 35 -15 25 -23 -7 -6 -166 -97 -353 -203 -187 -106
-349 -199 -360 -206 -26 -18 -48 -17 -120 4 l-59 18 374 194 c206 106 391 202
410 212 41 21 35 21 83 4z m1112 -25 c-3 -9 -63 -148 -133 -309 l-126 -293
-53 -29 c-101 -57 -148 -165 -119 -274 14 -55 13 -58 -12 -116 -23 -54 -42
-77 -42 -51 0 6 -13 38 -29 73 l-30 63 131 255 c72 140 154 300 183 355 29 55
82 160 119 232 65 131 66 132 91 121 17 -8 24 -17 20 -27z m555 -8 c0 -3 29
-131 65 -284 36 -152 65 -284 65 -293 0 -13 -11 -16 -50 -16 -33 0 -50 4 -50
13 0 6 -20 137 -45 291 -25 153 -45 280 -45 281 0 4 29 12 48 14 6 0 12 -2 12
-6z m927 -285 l263 -263 -57 -13 c-52 -11 -59 -11 -74 5 -67 73 -499 554 -499
557 0 2 23 -2 52 -10 49 -12 67 -29 315 -276z m-2232 273 c-6 -6 -122 -96
-260 -200 -137 -105 -321 -245 -408 -312 l-158 -121 -19 24 c-33 40 -45 69
-33 76 13 8 99 67 489 339 260 180 280 192 328 196 28 2 55 4 61 5 6 1 6 -1 0
-7z m926 -20 c3 -3 -20 -127 -51 -276 l-56 -270 -50 0 c-43 0 -49 2 -46 20 4
20 138 507 147 533 5 13 42 8 56 -7z m1660 -222 c173 -127 329 -242 347 -256
l33 -25 -23 -12 c-13 -7 -35 -20 -49 -29 l-26 -17 -139 112 c-77 62 -231 187
-343 278 -221 180 -213 168 -125 179 6 0 152 -103 325 -230z m-1459 -111 c2
-183 -1 -357 -6 -386 l-9 -53 -44 42 c-39 40 -43 47 -43 94 -1 124 34 621 44
627 6 4 21 8 33 8 l22 0 3 -332z m-3627 112 c55 -17 160 -45 233 -60 165 -36
245 -73 322 -150 70 -70 100 -140 100 -233 0 -76 -25 -135 -71 -168 -30 -21
-45 -24 -119 -24 -78 0 -92 3 -164 38 -43 20 -83 37 -88 37 -6 0 -8 -26 -3
-72 7 -71 12 -85 71 -165 19 -27 4 -63 -27 -63 -65 0 -257 102 -340 182 -60
57 -68 98 -20 98 17 0 32 4 36 9 4 8 8 313 5 449 0 12 -12 32 -27 45 -60 49
-72 65 -66 85 5 20 27 32 48 27 6 -1 55 -17 110 -35z m7746 -13 c65 -50 44
-241 -43 -387 -43 -71 -68 -73 -115 -12 -95 125 -79 328 32 389 44 25 101 29
126 10z m-471 -149 c66 -18 134 -89 156 -164 72 -250 -83 -560 -356 -712 -30
-17 -131 -58 -225 -92 -93 -34 -199 -74 -235 -89 -95 -40 -118 -45 -146 -26
-41 27 -33 72 22 120 43 38 46 44 54 110 11 77 20 521 12 562 -3 17 -16 30
-38 39 -45 19 -59 46 -42 81 22 45 58 62 193 88 72 14 173 38 225 52 183 50
279 57 380 31z m-6355 -73 c50 -14 151 -31 225 -39 150 -16 219 -37 292 -91
86 -63 129 -157 122 -263 -4 -72 -38 -131 -92 -160 -48 -27 -51 -35 -20 -60
112 -91 136 -130 166 -276 19 -94 22 -100 66 -140 52 -49 57 -72 22 -113 -23
-26 -29 -28 -93 -26 -79 2 -170 30 -222 70 -75 56 -105 114 -147 279 -37 147
-52 178 -103 208 -49 28 -56 14 -53 -106 1 -72 6 -108 17 -122 64 -88 69 -97
59 -124 -8 -23 -16 -27 -52 -30 -47 -3 -124 16 -217 55 -162 68 -242 168 -165
208 16 8 35 25 42 38 15 27 22 474 9 531 -6 22 -25 54 -45 75 -38 39 -45 66
-23 93 24 32 70 31 212 -7z m5395 -103 c69 -70 66 -235 -6 -262 -38 -15 -39
-14 -93 41 l-51 52 -93 -5 c-107 -6 -163 -26 -177 -63 -17 -44 -13 -211 5
-229 16 -16 61 -13 97 6 18 8 38 65 38 106 0 28 42 72 68 72 47 0 74 -79 73
-212 0 -132 -26 -220 -72 -243 -38 -20 -57 -10 -65 33 -10 59 -29 82 -69 82
-38 0 -62 -19 -71 -57 -9 -36 4 -214 17 -230 17 -20 69 -16 160 13 102 32 148
73 203 180 32 60 48 80 70 87 90 29 90 -144 -1 -315 -28 -52 -33 -55 -101 -64
-26 -3 -159 -34 -297 -69 -137 -34 -294 -71 -349 -81 l-98 -18 -19 23 c-29 35
-23 58 25 104 24 24 46 56 50 72 36 167 32 624 -6 703 -8 14 -27 30 -47 37
-54 18 -64 81 -21 120 19 17 30 19 430 75 118 16 242 38 275 49 81 26 92 25
125 -7z m-3953 -117 c23 -14 61 -49 83 -78 55 -74 161 -298 280 -597 133 -332
124 -315 175 -339 66 -31 70 -98 8 -138 -54 -36 -331 -13 -467 38 -41 15 -60
29 -72 50 -23 46 -15 81 24 100 19 8 37 21 42 28 11 19 0 50 -24 66 -22 15
-164 47 -263 60 -48 6 -53 5 -68 -19 -21 -32 -13 -56 27 -81 52 -33 56 -100 7
-125 -68 -37 -336 28 -369 89 -5 11 -10 34 -10 51 0 24 6 33 28 41 90 36 91
36 132 119 59 117 159 344 187 425 16 45 26 103 30 164 5 80 10 97 32 123 53
63 134 72 218 23z m-396 -32 c-6 -21 -11 -60 -11 -88 l-1 -50 -124 -129 -124
-130 -20 25 c-12 13 -19 31 -16 39 37 123 42 132 173 256 70 67 128 121 130
119 2 -2 -1 -20 -7 -42z m3321 7 c15 -18 18 -33 14 -60 -7 -42 -35 -67 -84
-75 -93 -15 -112 -24 -160 -86 -114 -147 -123 -177 -73 -245 15 -21 98 -121
184 -221 134 -156 162 -184 196 -194 52 -15 75 -41 75 -84 0 -34 -22 -68 -57
-86 -24 -13 -246 -49 -320 -52 l-60 -2 -46 60 c-82 109 -211 254 -231 260 -28
9 -47 -9 -55 -52 -11 -62 3 -110 46 -153 31 -31 39 -46 39 -75 0 -86 -91 -120
-323 -120 -155 0 -159 1 -178 24 -30 37 -25 85 16 129 53 59 60 107 60 407 0
330 -4 361 -56 414 -32 34 -39 48 -39 81 0 83 94 123 295 124 161 1 195 -16
195 -99 0 -21 -9 -44 -25 -63 -32 -38 -42 -67 -50 -139 -5 -44 -3 -63 9 -78
21 -28 40 -14 106 81 58 83 62 104 45 195 -13 66 53 114 180 132 17 3 86 4
153 3 119 -1 125 -2 144 -26z m-1982 -15 c17 -4 66 -46 132 -113 345 -356 362
-372 385 -372 31 0 43 33 43 118 -1 102 -13 140 -59 183 -35 31 -41 43 -41 75
1 82 47 104 212 104 137 0 183 -14 205 -61 20 -41 0 -94 -47 -124 -29 -18 -42
-35 -50 -65 -7 -25 -11 -161 -11 -363 1 -349 -8 -478 -36 -535 -16 -33 -23
-37 -59 -40 l-41 -3 -209 218 c-324 339 -341 355 -366 351 -37 -5 -48 -43 -48
-165 0 -129 6 -151 60 -210 41 -44 47 -64 30 -107 -20 -54 -115 -81 -228 -65
-83 12 -135 39 -156 83 -23 49 -21 61 26 112 31 33 43 57 49 92 11 68 10 495
-1 575 -13 85 -24 108 -77 146 -65 47 -67 117 -3 151 46 25 208 33 290 15z
m4464 -21 c32 -31 13 -116 -41 -181 -52 -62 -143 -92 -177 -57 -22 21 -20 87
3 132 49 94 168 153 215 106z"/>
<path d="M4853 5865 c-20 -8 -40 -30 -55 -57 -20 -37 -23 -56 -22 -138 3 -176
87 -416 164 -468 67 -45 145 -4 171 90 15 58 5 181 -25 299 -39 154 -88 244
-151 273 -39 19 -41 19 -82 1z"/>
<path d="M5255 3831 c-102 -42 -111 -238 -24 -489 39 -111 72 -168 112 -193
106 -64 188 34 173 209 -12 138 -44 260 -96 362 -31 62 -61 94 -103 109 -32
13 -35 13 -62 2z"/>
<path d="M2010 2206 c0 -112 1 -115 26 -135 27 -21 78 -27 102 -13 36 23 36
133 1 191 -22 36 -74 71 -106 71 -23 0 -23 -2 -23 -114z"/>
<path d="M8721 2180 c-64 -15 -63 -8 -62 -329 0 -161 3 -296 6 -301 21 -34
140 21 191 88 55 72 69 129 69 277 0 121 -2 134 -27 186 -39 78 -88 100 -177
79z"/>
<path d="M2876 2068 c-11 -42 -7 -213 6 -226 20 -20 83 -15 103 8 23 26 31
115 15 164 -22 67 -110 105 -124 54z"/>
<path d="M4012 1628 c-15 -18 -62 -147 -62 -169 0 -25 31 -36 124 -45 l76 -7
0 29 c0 45 -81 198 -106 202 -11 2 -26 -3 -32 -10z"/>
</g>
</svg>
